<svg xmlns="http://www.w3.org/2000/svg" xmlns:xlink="http://www.w3.org/1999/xlink" width="773px" height="538px" version="1.1" style="background-color: rgb(255, 255, 255);"><defs/><g transform="translate(0.5,0.5)"><ellipse cx="19" cy="299" rx="7.5" ry="7.5" fill="#7acff5" stroke="none" pointer-events="none"/><rect x="4" y="291" width="30" height="60" fill-opacity="0" fill="#7acff5" stroke="none" pointer-events="none"/><ellipse cx="19" cy="299" rx="7.5" ry="7.5" fill="none" stroke="#000000" pointer-events="none"/><path d="M 19 306 L 19 331" fill="none" stroke="#000000" stroke-miterlimit="10" pointer-events="none"/><path d="M 4 315 L 34 315" fill="none" stroke="#000000" stroke-miterlimit="10" pointer-events="none"/><path d="M 19 331 L 4 351" fill="none" stroke="#000000" stroke-miterlimit="10" pointer-events="none"/><path d="M 19 331 L 34 351" fill="none" stroke="#000000" stroke-miterlimit="10" pointer-events="none"/><g fill="#000000" font-family="Helvetica" text-anchor="middle" font-size="12px"><text x="18.5" y="369.5">Klijent</text></g><ellipse cx="694" cy="339" rx="7.5" ry="7.5" fill="#7acff5" stroke="none" pointer-events="none"/><rect x="679" y="331" width="30" height="60" fill-opacity="0" fill="#7acff5" stroke="none" pointer-events="none"/><ellipse cx="694" cy="339" rx="7.5" ry="7.5" fill="none" stroke="#000000" pointer-events="none"/><path d="M 694 346 L 694 371" fill="none" stroke="#000000" stroke-miterlimit="10" pointer-events="none"/><path d="M 679 355 L 709 355" fill="none" stroke="#000000" stroke-miterlimit="10" pointer-events="none"/><path d="M 694 371 L 679 391" fill="none" stroke="#000000" stroke-miterlimit="10" pointer-events="none"/><path d="M 694 371 L 709 391" fill="none" stroke="#000000" stroke-miterlimit="10" pointer-events="none"/><g fill="#000000" font-family="Helvetica" text-anchor="middle" font-size="12px"><text x="693.5" y="409.5">Sistem za autorizaciju kartica</text></g><ellipse cx="679" cy="173" rx="7.5" ry="7.5" fill="#7acff5" stroke="none" pointer-events="none"/><rect x="664" y="165" width="30" height="60" fill-opacity="0" fill="#7acff5" stroke="none" pointer-events="none"/><ellipse cx="679" cy="173" rx="7.5" ry="7.5" fill="none" stroke="#000000" pointer-events="none"/><path d="M 679 180 L 679 205" fill="none" stroke="#000000" stroke-miterlimit="10" pointer-events="none"/><path d="M 664 189 L 694 189" fill="none" stroke="#000000" stroke-miterlimit="10" pointer-events="none"/><path d="M 679 205 L 664 225" fill="none" stroke="#000000" stroke-miterlimit="10" pointer-events="none"/><path d="M 679 205 L 694 225" fill="none" stroke="#000000" stroke-miterlimit="10" pointer-events="none"/><g fill="#000000" font-family="Helvetica" text-anchor="middle" font-size="12px"><text x="678.5" y="243.5">Supervizor</text></g><rect x="99" y="0" width="501" height="537" fill="#7acff5" stroke="#000000" pointer-events="none"/><g fill="#000000" font-family="Helvetica" text-anchor="middle" font-size="12px"><text x="349" y="18.5">Event planner</text></g><ellipse cx="476" cy="171" rx="77.5" ry="24" fill="#7acff5" stroke="#000000" pointer-events="none"/><g fill="#000000" font-family="Helvetica" text-anchor="middle" font-size="12px"><text x="475" y="174.5">Update slobodnih usluga</text></g><ellipse cx="208" cy="197" rx="88.5" ry="26" fill="#7acff5" stroke="#000000" pointer-events="none"/><g fill="#000000" font-family="Helvetica" text-anchor="middle" font-size="12px"><text x="207" y="200.5">Odabir datuma i vrste eventa</text></g><path d="M 296 188.41 L 395.77 178.73" fill="none" stroke="#000000" stroke-miterlimit="10" stroke-dasharray="4" pointer-events="none"/><path d="M 385.52 185.76 L 396.89 178.63 L 384.36 173.81" fill="none" stroke="#000000" stroke-miterlimit="10" pointer-events="none"/><g fill="#000000" font-family="Helvetica" text-anchor="middle" font-size="11px"><text x="345.3" y="176.54">&lt;&lt;Include&gt;&gt;</text></g><ellipse cx="213" cy="280" rx="57" ry="29.5" fill="#7acff5" stroke="#000000" pointer-events="none"/><g fill="#000000" font-family="Helvetica" text-anchor="middle" font-size="12px"><text x="212.5" y="283">Rezervacija usluga</text></g><ellipse cx="219" cy="452" rx="90" ry="35" fill="#7acff5" stroke="#000000" pointer-events="none"/><g fill="#000000" font-family="Helvetica" text-anchor="middle" font-size="12px"><text x="218.5" y="455.5">Placanje kreditnom karticom</text></g><path d="M 214.03 309 L 217.7 414.77" fill="none" stroke="#000000" stroke-miterlimit="10" stroke-dasharray="4" pointer-events="none"/><path d="M 211.33 404.1 L 217.74 415.88 L 223.32 403.68" fill="none" stroke="#000000" stroke-miterlimit="10" pointer-events="none"/><g fill="#000000" font-family="Helvetica" text-anchor="middle" font-size="11px"><text x="225.4" y="365.62">&lt;&lt;Include&gt;&gt;</text></g><ellipse cx="266" cy="84" rx="84" ry="20.5" fill="#7acff5" stroke="#000000" pointer-events="none"/><g fill="#000000" font-family="Helvetica" text-anchor="middle" font-size="12px"><text x="265.5" y="87">Ponuda usluga</text></g><path d="M 350 94.93 L 421.78 104.7" fill="none" stroke="#000000" stroke-miterlimit="10" stroke-dasharray="4" pointer-events="none"/><path d="M 410.19 109.18 L 422.89 104.85 L 411.81 97.29" fill="none" stroke="#000000" stroke-miterlimit="10" pointer-events="none"/><g fill="#000000" font-family="Helvetica" text-anchor="middle" font-size="11px"><text x="387.51" y="93.01">&lt;&lt;Include&gt;&gt;</text></g><ellipse cx="499" cy="105" rx="75" ry="28.5" fill="#7acff5" stroke="#000000" pointer-events="none"/><g fill="#000000" font-family="Helvetica" text-anchor="middle" font-size="12px"><text x="498.5" y="108">Update ponudjenih usluga</text></g><ellipse cx="26" cy="30" rx="7.5" ry="7.5" fill="#7acff5" stroke="none" pointer-events="none"/><rect x="11" y="22" width="30" height="60" fill-opacity="0" fill="#7acff5" stroke="none" pointer-events="none"/><ellipse cx="26" cy="30" rx="7.5" ry="7.5" fill="none" stroke="#000000" pointer-events="none"/><path d="M 26 37 L 26 62" fill="none" stroke="#000000" stroke-miterlimit="10" pointer-events="none"/><path d="M 11 46 L 41 46" fill="none" stroke="#000000" stroke-miterlimit="10" pointer-events="none"/><path d="M 26 62 L 11 82" fill="none" stroke="#000000" stroke-miterlimit="10" pointer-events="none"/><path d="M 26 62 L 41 82" fill="none" stroke="#000000" stroke-miterlimit="10" pointer-events="none"/><g fill="#000000" font-family="Helvetica" text-anchor="middle" font-size="12px"><text x="25.5" y="100.5">Uposlenik</text></g><path d="M 34 311.13 L 167.98 223" fill="none" stroke="#000000" stroke-miterlimit="10" pointer-events="none"/><path d="M 553 180.14 L 664 193.23" fill="none" stroke="#000000" stroke-miterlimit="10" pointer-events="none"/><path d="M 34 317.79 L 156 291.69" fill="none" stroke="#000000" stroke-miterlimit="10" pointer-events="none"/><path d="M 309 434.76 L 679 363.87" fill="none" stroke="#000000" stroke-miterlimit="10" pointer-events="none"/><path d="M 41 53.97 L 182 72.48" fill="none" stroke="#000000" stroke-miterlimit="10" pointer-events="none"/><path d="M 555.69 133 L 664 187.46" fill="none" stroke="#000000" stroke-miterlimit="10" pointer-events="none"/><path d="M 34 311.13 L 167.98 223" fill="none" stroke="#000000" stroke-miterlimit="10" pointer-events="none"/><path d="M 34 317.79 L 156 291.69" fill="none" stroke="#000000" stroke-miterlimit="10" pointer-events="none"/><path d="M 309 434.76 L 679 363.87" fill="none" stroke="#000000" stroke-miterlimit="10" pointer-events="none"/><path d="M 553 180.14 L 664 193.23" fill="none" stroke="#000000" stroke-miterlimit="10" pointer-events="none"/><path d="M 555.69 133 L 664 187.46" fill="none" stroke="#000000" stroke-miterlimit="10" pointer-events="none"/><path d="M 296 188.41 L 395.77 178.73" fill="none" stroke="#000000" stroke-miterlimit="10" stroke-dasharray="4" pointer-events="none"/><path d="M 385.52 185.76 L 396.89 178.63 L 384.36 173.81" fill="none" stroke="#000000" stroke-miterlimit="10" pointer-events="none"/><g fill="#000000" font-family="Helvetica" text-anchor="middle" font-size="11px"><text x="345.3" y="176.54">&lt;&lt;Include&gt;&gt;</text></g><path d="M 553 180.14 L 664 193.23" fill="none" stroke="#000000" stroke-miterlimit="10" pointer-events="none"/><path d="M 34 311.13 L 167.98 223" fill="none" stroke="#000000" stroke-miterlimit="10" pointer-events="none"/><path d="M 296 188.41 L 395.77 178.73" fill="none" stroke="#000000" stroke-miterlimit="10" stroke-dasharray="4" pointer-events="none"/><path d="M 385.52 185.76 L 396.89 178.63 L 384.36 173.81" fill="none" stroke="#000000" stroke-miterlimit="10" pointer-events="none"/><g fill="#000000" font-family="Helvetica" text-anchor="middle" font-size="11px"><text x="345.3" y="176.54">&lt;&lt;Include&gt;&gt;</text></g><path d="M 34 317.79 L 156 291.69" fill="none" stroke="#000000" stroke-miterlimit="10" pointer-events="none"/><path d="M 214.03 309 L 217.7 414.77" fill="none" stroke="#000000" stroke-miterlimit="10" stroke-dasharray="4" pointer-events="none"/><path d="M 211.33 404.1 L 217.74 415.88 L 223.32 403.68" fill="none" stroke="#000000" stroke-miterlimit="10" pointer-events="none"/><g fill="#000000" font-family="Helvetica" text-anchor="middle" font-size="11px"><text x="225.4" y="365.62">&lt;&lt;Include&gt;&gt;</text></g><path d="M 214.03 309 L 217.7 414.77" fill="none" stroke="#000000" stroke-miterlimit="10" stroke-dasharray="4" pointer-events="none"/><path d="M 211.33 404.1 L 217.74 415.88 L 223.32 403.68" fill="none" stroke="#000000" stroke-miterlimit="10" pointer-events="none"/><g fill="#000000" font-family="Helvetica" text-anchor="middle" font-size="11px"><text x="225.4" y="365.62">&lt;&lt;Include&gt;&gt;</text></g><path d="M 309 434.76 L 679 363.87" fill="none" stroke="#000000" stroke-miterlimit="10" pointer-events="none"/><path d="M 41 53.97 L 182 72.48" fill="none" stroke="#000000" stroke-miterlimit="10" pointer-events="none"/><path d="M 350 94.93 L 421.78 104.7" fill="none" stroke="#000000" stroke-miterlimit="10" stroke-dasharray="4" pointer-events="none"/><path d="M 410.19 109.18 L 422.89 104.85 L 411.81 97.29" fill="none" stroke="#000000" stroke-miterlimit="10" pointer-events="none"/><g fill="#000000" font-family="Helvetica" text-anchor="middle" font-size="11px"><text x="387.51" y="93.01">&lt;&lt;Include&gt;&gt;</text></g><path d="M 350 94.93 L 421.78 104.7" fill="none" stroke="#000000" stroke-miterlimit="10" stroke-dasharray="4" pointer-events="none"/><path d="M 410.19 109.18 L 422.89 104.85 L 411.81 97.29" fill="none" stroke="#000000" stroke-miterlimit="10" pointer-events="none"/><g fill="#000000" font-family="Helvetica" text-anchor="middle" font-size="11px"><text x="387.51" y="93.01">&lt;&lt;Include&gt;&gt;</text></g><path d="M 555.69 133 L 664 187.46" fill="none" stroke="#000000" stroke-miterlimit="10" pointer-events="none"/><path d="M 41 53.97 L 182 72.48" fill="none" stroke="#000000" stroke-miterlimit="10" pointer-events="none"/></g></svg>